<?xml version="1.0" encoding="utf-8"?>
<!-- Generator: Adobe Illustrator 15.0.0, SVG Export Plug-In  -->
<!DOCTYPE svg PUBLIC "-//W3C//DTD SVG 1.1//EN" "http://www.w3.org/Graphics/SVG/1.1/DTD/svg11.dtd" [
	<!ENTITY ns_flows "http://ns.adobe.com/Flows/1.0/">
]>
<svg version="1.1"
	 xmlns="http://www.w3.org/2000/svg" xmlns:xlink="http://www.w3.org/1999/xlink" xmlns:a="http://ns.adobe.com/AdobeSVGViewerExtensions/3.0/"
	 x="0px" y="0px" width="35px" height="35px" viewBox="-1 -1.067 35 35" enable-background="new -1 -1.067 35 35"
	 xml:space="preserve">
<defs>
</defs>
<circle cx="16.5" cy="16.5" r="16.5"/>
<path fill="#FFFFFF" d="M20.877,27.692c-2.918,0-5.836,0-8.754,0c-1.178,0-2.133-0.955-2.133-2.133c0-6.131,0-12.262,0-18.392
	c0-1.178,0.955-2.133,2.133-2.133c2.918,0,5.836,0,8.754,0c1.179,0,2.133,0.955,2.133,2.133c0,6.13,0,12.261,0,18.392
	C23.01,26.737,22.056,27.692,20.877,27.692z M21.944,22.691c0-4.604,0-9.208,0-13.811c0-0.635,0.1-1.262-0.018-1.905
	c-0.079-0.433-0.27-0.658-0.682-0.81C20.694,5.964,17.884,6.1,17.355,6.1c-1.431,0-2.861,0-4.291,0
	c-0.817,0-2.008-0.125-2.008,1.067c0,4.605,0,9.211,0,13.817c0,0.619-0.27,2.18,0.544,2.637c0.587,0.33,3.488,0.137,4.045,0.137
	c1.43,0,2.86,0,4.291,0C20.753,23.758,21.944,23.883,21.944,22.691z M15.469,26.262c0.347,0.561,1.083,0.735,1.644,0.389
	c0.562-0.347,0.735-1.083,0.389-1.644s-1.082-0.735-1.644-0.389S15.122,25.701,15.469,26.262z"/>
</svg>
