<?xml version="1.0" encoding="utf-8"?>
<!-- Generator: Adobe Illustrator 15.0.0, SVG Export Plug-In  -->
<!DOCTYPE svg PUBLIC "-//W3C//DTD SVG 1.1//EN" "http://www.w3.org/Graphics/SVG/1.1/DTD/svg11.dtd" [
	<!ENTITY ns_flows "http://ns.adobe.com/Flows/1.0/">
]>
<svg version="1.1"
	 xmlns="http://www.w3.org/2000/svg" xmlns:xlink="http://www.w3.org/1999/xlink" xmlns:a="http://ns.adobe.com/AdobeSVGViewerExtensions/3.0/"
	 x="0px" y="0px" width="25px" height="25px" viewBox="-3.068 -4.573 25 25" enable-background="new -3.068 -4.573 25 25"
	 xml:space="preserve">
<defs>
</defs>
<path d="M9.521,3.814C8.725,2.68,7.907,1.439,6.702,0.712c-1.205-0.729-2.799-0.945-4.06-0.426c-1.262,0.519-2.189,1.769-2.51,3.133
	C-0.187,4.783,0.1,6.259,0.694,7.547c0.596,1.289,1.5,2.39,2.476,3.406c0.979,1.018,2.031,1.953,3.107,2.859
	c1.077,0.905,2.18,1.783,3.244,2.708c1.063-0.925,2.166-1.803,3.244-2.708c1.079-0.906,2.131-1.841,3.106-2.859
	c0.978-1.017,1.881-2.117,2.477-3.406c0.595-1.288,0.881-2.764,0.56-4.128c-0.319-1.364-1.246-2.614-2.508-3.133
	c-1.261-0.519-2.854-0.303-4.061,0.426C11.135,1.439,10.318,2.68,9.521,3.814z"/>
</svg>
