<?xml version="1.0" encoding="utf-8"?>
<!-- Generator: Adobe Illustrator 15.0.0, SVG Export Plug-In  -->
<!DOCTYPE svg PUBLIC "-//W3C//DTD SVG 1.1//EN" "http://www.w3.org/Graphics/SVG/1.1/DTD/svg11.dtd" [
	<!ENTITY ns_flows "http://ns.adobe.com/Flows/1.0/">
]>
<svg version="1.1"
	 xmlns="http://www.w3.org/2000/svg" xmlns:xlink="http://www.w3.org/1999/xlink" xmlns:a="http://ns.adobe.com/AdobeSVGViewerExtensions/3.0/"
	 x="0px" y="0px" width="35px" height="35px" viewBox="-1 -1.067 35 35" enable-background="new -1 -1.067 35 35"
	 xml:space="preserve">
<defs>
</defs>
<circle cx="16.5" cy="16.5" r="16.5"/>
<g>
	<path fill="#FFFFFF" d="M26,9.933c0,0.552-0.447,1-1,1H8c-0.553,0-1-0.448-1-1v-1c0-0.552,0.447-1,1-1h17c0.553,0,1,0.448,1,1
		V9.933z"/>
</g>
<g>
	<path fill="#FFFFFF" d="M26,24.933c0,0.552-0.447,1-1,1H8c-0.553,0-1-0.448-1-1v-1c0-0.552,0.447-1,1-1h17c0.553,0,1,0.448,1,1
		V24.933z"/>
</g>
<g>
	<path fill="#FFFFFF" d="M26,19.933c0,0.552-0.447,1-1,1H8c-0.553,0-1-0.448-1-1v-1c0-0.552,0.447-1,1-1h17c0.553,0,1,0.448,1,1
		V19.933z"/>
</g>
<g>
	<path fill="#FFFFFF" d="M26,14.933c0,0.552-0.447,1-1,1H8c-0.553,0-1-0.448-1-1v-1c0-0.552,0.447-1,1-1h17c0.553,0,1,0.448,1,1
		V14.933z"/>
</g>
</svg>
