<?xml version="1.0" encoding="utf-8"?>
<!-- Generator: Adobe Illustrator 15.0.0, SVG Export Plug-In  -->
<!DOCTYPE svg PUBLIC "-//W3C//DTD SVG 1.1//EN" "http://www.w3.org/Graphics/SVG/1.1/DTD/svg11.dtd" [
	<!ENTITY ns_flows "http://ns.adobe.com/Flows/1.0/">
]>
<svg version="1.1"
	 xmlns="http://www.w3.org/2000/svg" xmlns:xlink="http://www.w3.org/1999/xlink" xmlns:a="http://ns.adobe.com/AdobeSVGViewerExtensions/3.0/"
	 x="0px" y="0px" width="15px" height="15px" viewBox="-0.5 -0.5 15 15" enable-background="new -0.5 -0.5 15 15"
	 xml:space="preserve">
<defs>
</defs>
<path fill="#1A1A1A" d="M13.872,5.712c0.171,0.856,0.171,1.725,0,2.582c-0.941,0-1.88,0-2.816,0
	c-0.084,0.228-0.168,0.447-0.277,0.661c0.669,0.663,1.331,1.331,1.993,1.992c-0.487,0.727-1.104,1.343-1.825,1.836
	c-0.668-0.668-1.336-1.335-2.005-1.997c-0.2,0.109-0.429,0.193-0.643,0.265c0,0.948,0,1.888,0,2.828
	c-0.869,0.162-1.731,0.162-2.596,0c0-0.94,0-1.88,0-2.828c-0.225-0.072-0.448-0.156-0.655-0.265
	c-0.669,0.662-1.336,1.329-1.998,1.997c-0.72-0.493-1.343-1.109-1.83-1.836c0.667-0.661,1.337-1.329,2.005-1.992
	C3.115,8.741,3.018,8.521,2.939,8.294c-0.935,0-1.875,0-2.823,0c-0.154-0.857-0.154-1.726,0-2.582c0.948,0,1.889,0,2.829,0
	c0.072-0.229,0.17-0.448,0.279-0.662C2.557,4.389,1.887,3.72,1.22,3.045c0.487-0.713,1.11-1.322,1.83-1.823
	c0.662,0.668,1.329,1.336,1.998,2C5.255,3.11,5.479,3.026,5.703,2.956c0-0.948,0-1.895,0-2.829c0.864-0.168,1.727-0.168,2.596,0
	c0,0.934,0,1.881,0,2.829c0.214,0.07,0.442,0.155,0.656,0.266c0.667-0.663,1.323-1.332,1.991-2c0.722,0.5,1.338,1.109,1.83,1.837
	c-0.667,0.667-1.329,1.33-1.998,1.991c0.109,0.214,0.193,0.434,0.277,0.662C11.992,5.712,12.931,5.712,13.872,5.712z M8.597,7.002
	c0-0.881-0.713-1.602-1.595-1.602c-0.889,0-1.604,0.721-1.604,1.602c0,0.882,0.715,1.602,1.604,1.602
	C7.884,8.604,8.597,7.884,8.597,7.002z"/>
</svg>
