<?xml version="1.0" encoding="utf-8"?>
<!-- Generator: Adobe Illustrator 15.0.0, SVG Export Plug-In  -->
<!DOCTYPE svg PUBLIC "-//W3C//DTD SVG 1.1//EN" "http://www.w3.org/Graphics/SVG/1.1/DTD/svg11.dtd" [
	<!ENTITY ns_flows "http://ns.adobe.com/Flows/1.0/">
]>
<svg version="1.1"
	 xmlns="http://www.w3.org/2000/svg" xmlns:xlink="http://www.w3.org/1999/xlink" xmlns:a="http://ns.adobe.com/AdobeSVGViewerExtensions/3.0/"
	 x="0px" y="0px" width="260px" height="45px" viewBox="-1.803 -0.968 260 45" enable-background="new -1.803 -0.968 260 45"
	 xml:space="preserve">
<defs>
</defs>
<path d="M224.678,28.607c-0.155,1.725,0.263,3.296-0.155,4.969c-4.708-0.104-9.521,0.313-14.227-0.104
	c0.158-1.569-0.418-3.296,0.158-4.865c0.261-0.68,1.986,0.472,2.249-0.418c0.574-3.556,0.468-6.956-0.263-10.512
	c0-0.574-0.575-0.992-1.15-1.412c-1.569-0.888-2.98,0.104-3.975,1.412c-0.993,1.413-0.261,3.138-0.681,4.813
	c-0.243,0-0.487,0-0.73,0c-0.158,0-0.262,0.157-0.262,0.313s0.104,0.263,0.262,0.263c0.261,0,0.73-0.263,0.73-0.106
	c0.262,1.674,0,3.559,0.262,5.23c0,0.158,0.158,0.574,0.313,0.574c0.366,0,0.941-0.574,0.941-0.156
	c0.314,1.569,0.158,3.296,0.158,4.865c-3.976,0.26-7.951,0.104-11.926,0.104c-0.313,0-0.313-0.418-0.416-0.576
	c-0.158,0-0.315,0-0.315,0.157c-0.157,0.156,0.315,0.314,0.157,0.418c-0.575,0.156-1.725,0.156-1.151-0.68c0,0,0.473,0,0.576-0.262
	c0-0.156,0-0.313-0.104-0.313c-0.314-0.159-0.577,0.156-0.577,0.156c0-1.308-0.313-2.72,0.104-4.025
	c1.151-0.106,2.563,0.469,3.558-0.264c0-3.817,0.156-7.792-0.104-11.662c0-0.42-0.733-0.262-1.151-0.262
	c0.106,0,0.106-0.158,0.106-0.314c-0.106-0.261-0.524-0.261-0.683,0c0,0.156,0,0.314,0.158,0.314c-0.732,0-1.308,0.104-1.568-0.575
	c-0.157,0.156-0.157,0.156-0.315,0.261c0,0.156,0,0.314,0.158,0.314c-0.263,0-0.418-0.158-0.418-0.314
	c0-1.517-0.313-3.086,0.155-4.655c2.79,0,5.58,0,8.368,0c0.681,0,1.412-0.155,1.988,0.262c0.263-0.417,0.994-0.417,1.099-0.158
	c0.47,1.152-0.104,2.408,0.313,3.558c1.411-0.837,2.3-2.406,3.713-3.139c1.255-0.523,2.405-1.099,3.815-1.412
	c1.57-0.263,2.982,0.157,4.29,0.992c0.106,0.158,0,0.316-0.157,0.316c0.157,0.104,0.157,0.104,0.264,0.261
	c0-0.105,0.47-0.158,0.26-0.315c1.098,0.838,1.778,2.092,2.196,3.453c0.157,0.262-0.418,0.418-0.313,0.731
	c0.157,0.105,0.471,0.261,0.471,0.419c0.104,3.086-0.313,6.224-0.157,9.363c0-0.158-0.156-0.158-0.313-0.158
	c-0.104,0.158-0.26,0.158-0.26,0.314c0,0.261,0.417,0.261,0.573,0.417c0.157,0.732-0.313,1.885,0.419,2.146
	C222.273,28.764,223.526,28.189,224.678,28.607z"/>
<path d="M181.319,4.813c-0.154-0.105-0.26-0.105-0.26-0.262c0-1.569-0.313-2.982,0.105-4.551c2.475,0,4.95,0,7.425,0
	c0.419,2.094,0,4.394,0.157,6.538c-0.994,0.263-2.145,0.104-3.138,0c-0.313,0-0.575-0.26-0.732-0.575
	c-0.106-0.157-0.26,0-0.26,0.158c0,0.174,0,0.348,0,0.521c-0.892,0.159-1.884,0-2.721,0c0.261,0,0-0.364,0.261-0.364
	c-0.105-0.157-0.105-0.472-0.367-0.315c-0.312,0.158-0.312,0.419-0.312,0.679c-0.159,0-0.419,0-0.419-0.104
	C181.06,5.963,180.746,5.232,181.319,4.813z"/>
<path d="M193.14,30.543c-0.155,0-0.314,0-0.314,0.156c0.471,0.732,0.471,1.831,0.159,2.721c-3.505,0-7.01,0-10.515,0
	c-0.156,0-0.156-0.158-0.313-0.313c-0.105,0.155-0.105,0.313-0.261,0.313c-1.656,0-3.313,0-4.969,0c-0.419-1.046,0-1.988-0.157-2.98
	c0.313,0,0.417-0.158,0.575-0.314c0-0.158-0.158-0.158-0.263-0.263c-0.155,0-0.313,0-0.313,0.105c0-0.576-0.156-1.255,0.157-1.412
	c0.994-0.995,2.721,0.314,4.132-0.574c0-2.32,0-4.639,0-6.957c0-0.159,0.26-0.159,0.26-0.261c0.159-0.314-0.154-0.576-0.154-0.733
	c-0.262-1.308-0.105-2.405-0.105-3.713c-1.411-0.837-2.876,0.156-4.289-0.417c0-1.257,0.157-2.408,0-3.662
	c0.313,0,0.837,0,0.837-0.472c-0.104-0.574-0.524-0.103-0.837,0c0-0.261-0.156-0.679,0.157-0.835c1.15-0.157,2.248,0,3.399,0
	c2.98,0,5.856-0.419,8.838,0.262c0.157,0-0.156,0.574-0.313,1.046c0,0.104,0.313,0.104,0.313,0.261c0,1.656,0,3.312,0,4.969
	c-0.156,0-0.313,0.156-0.313,0.156c0.313,0.417,0.157,0.417,0,0.836c0,0.158,0.313,0.158,0.313,0.261
	c-0.156,1.466-0.156,2.98,0,4.289c0,0.994-0.156,2.408,0,3.557c-0.313,0-0.313,0.157-0.418,0.313
	c0.418,0.262,0.262,0.838,0.575,0.942c0.94,1.201,2.667-0.263,3.662,0.732C193.402,28.871,193.14,29.863,193.14,30.543z"/>
<path d="M175.251,26.046c0,0.155,0.158,0.155,0.314,0.155c0.262,1.152-0.156,2.148-0.471,3.296
	c-0.104,0.681-0.366,1.413-0.941,1.831c-0.89,0.574-1.15,1.412-2.038,1.674c-0.175,0-0.351,0-0.524,0
	c-0.313,0.156-0.418,0.469-0.732,0.576c-1.411,0.311-2.825,0.731-4.236,0.626c-2.039-0.315-4.131-0.626-5.699-2.041
	c-1.83-1.831-2.303-4.548-2.563-6.953c0.278,0,0.558,0,0.836,0c0.158,0,0.158-0.105,0.158-0.263c-0.261-0.314-0.891,0-0.891-0.158
	c-0.26-0.992-0.104-2.143-0.104-3.295c0.104,0,0.261,0,0.261-0.102c-0.523-1.467-0.157-3.297-0.261-5.021
	c-1.413-0.837-3.139,0.47-4.132-0.524c-0.418-0.469,0-1.726,0-2.457c0-0.523-0.314-1.988,0-1.988
	c2.301-0.575,4.549-0.419,6.119-2.406c1.83-2.249,1.569-5.229,1.83-7.948c0.732,0,1.569,0.104,2.145,0.104s1.569-0.365,2.145,0
	c0.156,0.314,0,0.732,0,1.204c0,0.992,0.418,2.249-0.471,2.822c0.157,0,0.157,0.523,0.471,0.158c0,1.795,0,3.592,0,5.385
	c0,0.105,0.156,0.262,0.262,0.262c0.992,0,2.143-0.156,3.139,0.157c0,0.192,0,0.382,0,0.576c0,0.105,0.155,0.105,0.313,0.105
	c0.262-0.105,0.367-0.523,0.104-0.838c1.151-0.156,2.407,0.157,3.557,0c0.419,1.727,0,3.296,0.158,4.969
	c-0.836,0.158-1.882,0.419-2.406-0.261c-0.157-0.156-0.313,0-0.313,0.156c0,0.088,0,0.176,0,0.263
	c-1.256-0.263-2.981,0.732-3.977-0.263c-0.26,0.421-0.679,0.263-0.679,0.682c-0.313,1.254-0.156,2.458-0.156,3.712
	c-0.157,0-0.313,0-0.313,0.157c0,0.158,0.156,0.261,0.156,0.261c0.732,2.874-1.151,6.851,1.829,8.104
	c0.472,0.158,0.628,0.733,1.151,0.577c0.419-0.157-0.157-0.577,0-0.732c2.145-1.569,1.151-4.394,1.726-6.538c1.465,0,2.93,0,4.395,0
	c-0.158,0.314-0.576,0.314-0.681,0.576c0,0.156,0,0.314,0.104,0.314c0.262,0,0.576,0.104,0.732-0.158
	C175.565,23.9,175.67,24.947,175.251,26.046z"/>
<path d="M148.942,17.783c-0.575,0-1.308,0.156-1.831-0.104c-0.575-0.263-1.046-0.995-1.411-1.415
	c-0.053-0.102-0.053-0.156-0.053-0.208c-0.035,0-0.069,0-0.104,0c-0.313-0.156-0.574-0.209-0.89-0.365
	c-0.994-0.733-1.986-0.888-2.98-0.888c-0.416,0-0.836,0.312-1.411,0.312c-0.157,0-0.157-0.416-0.419-0.312
	c-0.156,0-0.156,0.155-0.261,0.312c0,0.156,0,0.263,0.104,0.263c-0.262,0.469-0.994,0.73-0.68,1.306
	c0.261,0.419,0.68,0.732,1.255,0.837c-0.052,0.086-0.104,0.173-0.157,0.262c0.157,0.471,0.576,0.156,0.732,0.156
	c0.992,0,2.144,0.576,3.137,0.89c0.421,0.156,0.995,0.156,1.413,0.156c3.661,0.838,7.271,2.98,7.53,6.956c-0.087,0-0.174,0-0.26,0
	c-0.156,0-0.156,0.105-0.156,0.261c0.156,0.158,0.416,0.158,0.416,0.158c0.158,0.992-0.155,1.989-0.574,2.98
	c-0.262,0.576-0.577,1.254-1.149,1.569c-0.263,0.156-0.577,0-0.682,0.262c0,0.156,0,0.313,0.104,0.418
	c-1.568,1.413-3.505,2.3-5.491,2.615c0-0.157-0.156-0.315-0.156-0.315c-1.149,0.682-2.721,0.315-3.975-0.156
	c-1.727-0.26-2.981-1.675-4.552-1.984c-0.731,0-0.731,2.141-1.883,1.828c-0.156-0.104-0.417-0.419-0.731-0.262
	c-0.104,0-0.104,0.158-0.104,0.262c-0.836-0.104-2.143,0.313-2.563-0.104c-0.838-0.994-0.314-2.563-0.314-3.976
	c0-0.156,0.473-0.156,0.314-0.418c0-0.158-0.314-0.158-0.314-0.315c0.158-1.148-0.523-2.979,0.473-3.398
	c1.253-0.418,2.979-0.732,4.235,0.103c2.144,1.466,4.288,2.88,6.693,3.453c1.308,0.158,2.981-0.158,3.139-1.411
	c0.313-2.145-2.72-2.145-4.393-2.407c-0.313-0.156-0.157-0.731-0.575-0.574c-0.157,0-0.157,0.261-0.314,0.261
	c-2.823-0.419-5.545-1.411-7.532-3.714c0,0,0.157-0.156,0.315-0.262c-0.158-0.156-0.158-0.156-0.315-0.26
	c0,0.104-0.157,0.26-0.259,0.104c-0.316-0.576-0.159-0.733,0-1.308c0-0.105-0.159-0.105-0.316-0.262c0,0.156-0.104,0.262-0.26,0.156
	c-0.156-0.156,0.417-0.156,0.26-0.417c0-0.314-0.416,0-0.416-0.314c-0.576-2.824,0.834-5.386,3.293-6.693
	c3.662-1.936,8.213-1.831,11.924,0.731c0.313,0.158,0.732-1.15,1.308-1.15c1.411-0.262,2.825-0.419,4.08,0c0,0.245,0,0.488,0,0.732
	c0,1.83,0.315,3.818-0.104,5.649C151.193,17.783,149.832,18.044,148.942,17.783z"/>
<path d="M117.666,4.813c-0.155-0.105-0.261-0.105-0.261-0.262c0-1.569-0.314-2.982,0.105-4.551c2.474,0,4.949,0,7.424,0
	c0.419,2.094,0,4.394,0.157,6.538c-0.994,0.263-2.144,0.104-3.138,0c-0.313,0-0.575-0.26-0.732-0.575
	c-0.103-0.157-0.261,0-0.261,0.158c0,0.174,0,0.348,0,0.521c-0.89,0.159-1.883,0-2.719,0c0.261,0,0-0.364,0.261-0.364
	c-0.104-0.157-0.104-0.472-0.366-0.315c-0.314,0.158-0.314,0.419-0.314,0.679c-0.156,0-0.417,0-0.417-0.104
	C117.405,5.963,117.091,5.232,117.666,4.813z"/>
<path d="M129.485,30.543c-0.156,0-0.313,0-0.313,0.156c0.471,0.732,0.471,1.831,0.157,2.721c-3.504,0-7.008,0-10.512,0
	c-0.158,0-0.158-0.158-0.314-0.313c-0.104,0.155-0.104,0.313-0.261,0.313c-1.656,0-3.313,0-4.971,0c-0.418-1.046,0-1.988-0.156-2.98
	c0.313,0,0.419-0.158,0.575-0.314c0-0.158-0.156-0.158-0.262-0.263c-0.157,0-0.313,0-0.313,0.105c0-0.576-0.156-1.255,0.156-1.412
	c0.995-0.995,2.721,0.314,4.134-0.574c0-2.32,0-4.639,0-6.957c0-0.159,0.261-0.159,0.261-0.261c0.156-0.314-0.155-0.576-0.155-0.733
	c-0.264-1.308-0.105-2.405-0.105-3.713c-1.413-0.837-2.878,0.156-4.29-0.417c0-1.257,0.156-2.408,0-3.662
	c0.313,0,0.837,0,0.837-0.472c-0.104-0.574-0.523-0.103-0.837,0c0-0.261-0.156-0.679,0.156-0.835c1.151-0.157,2.249,0,3.4,0
	c2.981,0,5.857-0.419,8.839,0.262c0.157,0-0.157,0.574-0.314,1.046c0,0.104,0.314,0.104,0.314,0.261c0,1.656,0,3.312,0,4.969
	c-0.157,0-0.314,0.156-0.314,0.156c0.314,0.417,0.157,0.417,0,0.836c0,0.158,0.314,0.158,0.314,0.261
	c-0.157,1.466-0.157,2.98,0,4.289c0,0.994-0.157,2.408,0,3.557c-0.314,0-0.314,0.157-0.419,0.313
	c0.419,0.262,0.262,0.838,0.576,0.942c0.941,1.201,2.667-0.263,3.661,0.732C129.747,28.871,129.485,29.863,129.485,30.543z"/>
<path d="M111.856,22.124c0.313,3.557,0.052,6.119,0.052,9.728c-0.157-0.314-0.522-0.314-0.68-0.628
	c-0.157,0.158-0.313,0.158-0.313,0.314c0.156,0.419,0.575,0.732,0.993,0.732c-0.157,0.419,0.157,1.101-0.157,1.101
	c-3.66,0.469-7.217,0.155-10.878,0.155c0-0.155,0-0.262-0.156-0.262c-0.157,0-0.157,0.107-0.157,0.262c-4.411,0-8.821,0-13.231,0
	c0.156,0,0.156-0.155,0.156-0.262c-0.156-0.155-0.156-0.155-0.262-0.313c-0.156,0.158-0.471,0.313-0.471,0.575
	c-3.817-0.155-7.688,0.314-11.505-0.155c0.155-2.146-0.263-4.395,0.155-6.539c1.554,0,3.104,0,4.656,0c-0.104,0-0.262,0-0.262,0.157
	c-0.104,0.313,0.157,0.417,0.262,0.574c0.472-0.574,0.732-0.574,1.308-0.888c0.837-0.365,0-1.936,0.261-2.98c0.105,0,0.21,0,0.314,0
	c0.157,0,0.157-0.105,0.157-0.262c-0.157-0.105-0.472-0.105-0.472-0.105c-0.104-4.708,0-9.256,0-13.963
	c0.157,0.314,0.472,0.156,0.731,0.156c0.158,0,0.158-0.313,0.158-0.417c-0.158-0.313-0.575-0.156-0.732-0.471
	c-0.261-0.523,0.157-1.411-0.418-1.831c-0.419-0.103-0.994,0.158-1.412,0c-0.157-0.103-0.262-0.419-0.576-0.261
	c-0.156,0-0.156,0.158-0.156,0.261c-0.576,0.158-0.994-0.103-1.569-0.261c-0.104,0-0.104,0.158-0.104,0.261
	c-0.627,0-1.15,0.158-1.57,0c-0.313-0.103-0.47-0.261-0.73-0.103c0-2.146-0.105-4.289,0.155-6.435c0-0.419,0.839-0.155,1.256-0.155
	c4.638,0,9.274,0,13.912,0c0.157,0,0.157,0.469,0.472,0.313c0.156,0,0.156-0.313,0.262-0.313c2.301-0.105,4.705,0.155,6.954,0
	c0.471,2.143,0.471,4.443,0,6.589c-0.103,0.365-1.099,0-1.829,0.103c0-0.103,0-0.261-0.106-0.261
	c-0.47,0.158-0.575,0.419-1.044,0.261c-0.263-0.103-0.421-0.68-0.682-0.836c-0.416,0-0.888,0.575-0.313,0.836
	c-0.574,0.158-1.411-0.261-1.673,0.262c-0.157,0.627,0.104,1.308,0,2.04c-0.157,0-0.575-0.156-0.575,0.105
	c0,0.471,0.418,0.89,0.418,1.151c0.419,5.438-0.418,10.825,0.419,16.21c0,0.732,1.725,0,2.562,0.263c0,0.19,0,0.382,0,0.574
	c0,0.156,0.157,0.156,0.313,0.156c0.262-0.156,0-0.574,0.105-0.574c0.838-0.157,1.569-0.314,2.405-0.157
	c0.157,0,0.157,0.313,0.314,0.313c0.261,0.156,0.575-0.156,0.731-0.156c1.256-0.314,2.668-0.157,3.976-0.157
	c0.104,0,0.262-0.158,0.262-0.263c0-2.51,0-5.021,0-7.532c0,0.107,0.156,0.107,0.313,0.107c0.105,0,0.105-0.107,0.105-0.262
	c0.261,0,0.574-0.104,0.73-0.104c2.249-0.315,4.55-0.473,6.956,0c0.576,0.104,0.104,1.254,0.262,1.935
	C111.891,21.182,111.873,21.653,111.856,22.124z"/>
<path d="M255.228,10.033c0.941,0.262,1.83,0.836,2.25,1.673c0.835,1.727,0.994,4.132-0.157,5.857c-1.727,0-3.557,0.158-5.126-0.315
	c-0.262-0.156,0.156-1.096,0-1.828c-0.262-0.576-0.42-1.152-0.993-1.413c-0.524-0.262-1.149-0.156-1.728,0
	c-0.521,0.261-1.098,0.68-0.836,1.256c2.301,3.554,0.575,8.105-2.824,10.091c-4.236,2.303-9.258,2.564-13.807,1.308
	c-0.838,0.574-0.575,1.831,0.313,2.301c0.839,0.263,1.728,0.365,2.563,0.365c2.667,0.16,5.387,0.472,8.106,0.472
	c0,0.228,0,0.455,0,0.681c0,0.155,0.105,0.155,0.262,0.155c0.262-0.155,0.262-0.417,0.105-0.731
	c3.031,0.472,6.588,0.992,7.688,3.976c0.73,1.88,0.889,3.871-0.105,5.596c-0.574,0.835-1.15,1.674-2.145,2.247
	c-1.568,1.152-3.138,1.569-4.811,2.146c-0.158,0-0.158-0.158-0.314-0.314c-0.68,0.835-1.831,0.574-2.823,0.73
	c-3.558,0.421-7.114,0.421-10.513-0.73c-1.256-0.523-2.459-0.944-3.451-1.987c0.156,0.051,0.156-0.262,0.313-0.262
	c-0.19-0.192-0.382-0.384-0.573-0.577c0,0.156-0.158,0.316-0.264,0.156c-0.731-0.887-1.046-1.882-0.887-2.823
	c0.155-0.628,0.313-1.046,0.572-1.57c0.578-1.043,1.727-1.463,2.25-2.458c-0.938-0.52-2.091-1.411-2.25-2.666
	c0.42,0.417,0.995,0.577,0.995,0c0-0.472-0.995-0.314-1.15-0.575c-0.417-0.575,0-1.467,0.155-1.99
	c0.578-1.569,1.988-2.456,3.296-3.293c-0.575-0.994-1.412-1.569-2.145-2.563c-0.156-0.105,0.262-0.26,0.16-0.417
	c-1.152-0.575-1.312-1.831-1.467-2.982c-0.104-1.569,0-3.137,0.733-4.549c0.155-0.157,0.261,0,0.261,0.157
	c0.156-0.157,0.313-0.157,0.313-0.314c0-0.262-0.156-0.576,0-0.837c0.732-1.151,1.674-1.725,2.668-2.405
	c2.877-1.727,5.963-1.885,9.1-1.727c0,0.158,0,0.261,0.158,0.261c0.155,0,0.313,0,0.313-0.261c3.087,0.576,5.963,1.727,8.472,3.714
	c0.158,0.156-0.103-0.314,0-0.576c0.472-0.837,1.204-1.569,2.04-2.301c0.141,0,0.279,0,0.42,0c0.837-0.995,2.248-0.837,3.399-0.995
	c0.575,0,0.416,0.89,0.888,0.89C254.912,10.451,254.757,9.875,255.228,10.033z"/>
<path fill="#FFFFFF" d="M239.275,15.264c0,0,0.105-0.054,0.157-0.21C239.433,15.21,239.381,15.264,239.275,15.264
	c-1.411-1.413-3.556-0.577-4.13,0.992c-0.263,0.577-0.42,1.151-0.576,1.726c-0.157,0.993,0,1.987,0.313,2.824
	c0.263,0.837,1.254,1.885,2.248,2.04c0.419,0,1.151,0,1.569-0.313c0.262-0.264,0.732-0.419,0.994-0.575
	c0.157-0.159,0-0.315-0.156-0.315c1.308-1.675,1.62-4.341,0.156-5.805C239.538,15.682,239.538,15.42,239.275,15.264z"/>
<path fill="#FFFFFF" d="M237.55,35.921c-1.254-0.159-2.404-0.47-3.66-0.159c-0.574,0-1.15,0.577-1.412,1.098
	c-0.313,0.893,0.104,1.465,0.838,1.884c1.984,1.101,4.234,1.257,6.536,0.839c0,0.262,0.156,0.262,0.262,0.418
	c0.086-0.088,0.173-0.175,0.262-0.262c0-0.156,0-0.261-0.054-0.261c1.152-0.211,2.668-1.101,2.354-2.146
	C241.943,35.451,239.433,36.024,237.55,35.921z"/>
<path fill="#31E7FF" d="M66.001,30.321c-0.557,0.518-1.172,0.967-1.805,1.388c-0.634,0.423-1.288,0.815-1.981,1.125
	c-0.692,0.313-1.425,0.537-2.172,0.674c-0.749,0.133-1.509,0.176-2.272,0.19c-0.762,0.015-1.524,0-2.275-0.079
	c-0.75-0.077-1.486-0.219-2.225-0.412c-0.739-0.191-1.48-0.435-2.173-0.765c-0.694-0.33-1.34-0.745-1.936-1.219
	c-0.598-0.476-1.144-1.012-1.618-1.603c-0.479-0.591-0.882-1.237-1.215-1.922c-0.333-0.682-0.594-1.401-0.795-2.135
	c-0.201-0.736-0.342-1.484-0.411-2.24c-0.071-0.756-0.069-1.521-0.02-2.28c0.05-0.759,0.146-1.515,0.305-2.257
	c0.157-0.745,0.376-1.477,0.665-2.181c0.29-0.702,0.648-1.376,1.077-2.004c0.429-0.628,0.927-1.207,1.457-1.751
	c1.378-1.379,2.758-2.757,4.137-4.139c-0.301,0.304-0.581,0.623-0.851,0.952c-0.417,0.512-0.801,1.049-1.121,1.624
	c-0.322,0.571-0.579,1.18-0.793,1.805c-0.213,0.623-0.382,1.259-0.506,1.905c-0.122,0.648-0.196,1.302-0.235,1.958
	c-0.039,0.657-0.044,1.316,0.002,1.973c0.044,0.656,0.136,1.31,0.287,1.95c0.152,0.64,0.362,1.265,0.602,1.879
	s0.506,1.219,0.854,1.774c0.346,0.557,0.771,1.063,1.229,1.541c0.456,0.478,0.942,0.921,1.474,1.311
	c0.53,0.389,1.109,0.719,1.716,0.967c0.608,0.247,1.247,0.411,1.886,0.58c0.637,0.17,1.272,0.353,1.918,0.463
	s1.303,0.156,1.961,0.169c0.657,0.013,1.316-0.004,1.973-0.061c0.656-0.057,1.31-0.153,1.942-0.33
	c0.632-0.177,1.24-0.438,1.824-0.742c0.583-0.305,1.141-0.657,1.684-1.029c0.543-0.373,1.07-0.766,1.552-1.215c0,0,0,0,0.001,0.001
	c-1.337,1.339-2.675,2.678-4.015,4.016C66.087,30.242,66.045,30.282,66.001,30.321z"/>
<path fill="#FFFFFF" d="M58.355,18.638c-0.119,0.409-0.252,0.837-0.26,1.265c-0.007,0.426,0.11,0.85,0.255,1.259
	c0.143,0.409,0.313,0.806,0.518,1.185c0.206,0.379,0.446,0.742,0.733,1.063c0.288,0.321,0.623,0.603,0.998,0.815
	c0.374,0.213,0.786,0.358,1.21,0.447c0.422,0.088,0.855,0.116,1.286,0.097c0.43-0.017,0.858-0.085,1.277-0.196
	c0.417-0.114,0.825-0.27,1.197-0.486c0.37-0.213,0.708-0.492,1.003-0.804c0.294-0.316,0.545-0.671,0.769-1.041
	c0.224-0.369,0.419-0.756,0.559-1.165c1.679,0,3.359,0,5.037,0c-0.14,0.642-0.32,1.282-0.569,1.887
	c-0.248,0.608-0.564,1.186-0.94,1.727c-0.374,0.539-0.808,1.042-1.288,1.493c-0.481,0.449-1.009,0.843-1.552,1.215
	c-0.543,0.372-1.101,0.724-1.684,1.029c-0.584,0.304-1.192,0.564-1.824,0.742c-0.633,0.177-1.286,0.273-1.942,0.33
	c-0.656,0.057-1.315,0.074-1.973,0.061c-0.658-0.013-1.315-0.058-1.961-0.169s-1.281-0.293-1.918-0.463
	c-0.639-0.169-1.277-0.333-1.886-0.58c-0.606-0.248-1.186-0.578-1.716-0.967c-0.531-0.39-1.018-0.833-1.474-1.311
	c-0.457-0.478-0.883-0.984-1.229-1.541c-0.348-0.555-0.614-1.16-0.854-1.774s-0.449-1.239-0.602-1.879
	c-0.151-0.64-0.243-1.294-0.287-1.95c-0.046-0.657-0.041-1.316-0.002-1.973c0.039-0.656,0.113-1.31,0.235-1.958
	c0.124-0.646,0.293-1.282,0.506-1.905c0.214-0.625,0.471-1.233,0.793-1.805c0.32-0.574,0.704-1.111,1.121-1.624
	c0.416-0.509,0.863-0.998,1.358-1.427c0.496-0.429,1.042-0.804,1.613-1.131c0.572-0.327,1.169-0.605,1.782-0.847
	c0.613-0.24,1.239-0.44,1.881-0.586c0.642-0.145,1.299-0.23,1.956-0.261c0.657-0.03,1.315-0.001,1.971,0.06
	c0.656,0.06,1.31,0.151,1.951,0.293c0.643,0.142,1.273,0.333,1.886,0.574s1.203,0.534,1.766,0.875
	c0.564,0.34,1.102,0.728,1.592,1.166c0.489,0.438,0.932,0.927,1.333,1.448s0.762,1.076,1.071,1.656
	c0.311,0.583,0.57,1.188,0.735,1.822c0.164,0.637,0.234,1.296,0.29,1.953c0.055,0.657,0.094,1.311,0.127,1.97
	c0,0.031,0.002,0.06,0.004,0.088c0.02,0.389,0.032,0.648,0.014,0.807c-0.018,0.159-0.069,0.219-0.13,0.273s-0.134,0.097-0.21,0.128
	c-0.076,0.037-0.16,0.058-0.295,0.077c-0.135,0.02-0.324,0.034-0.691,0.037C67.384,18.638,62.869,18.638,58.355,18.638z"/>
<path fill="#31E7FF" d="M58.355,18.638c-0.119,0.409-0.252,0.837-0.26,1.265c-0.007,0.426,0.11,0.85,0.255,1.259
	c0.143,0.409,0.313,0.806,0.518,1.185c0.206,0.379,0.446,0.742,0.733,1.063c0.288,0.321,0.623,0.603,0.998,0.815
	c0.374,0.213,0.786,0.358,1.21,0.447c0.422,0.088,0.855,0.116,1.286,0.097c0.43-0.017,0.858-0.085,1.277-0.196
	c0.417-0.114,0.825-0.27,1.197-0.486c0.37-0.213,0.708-0.492,1.003-0.804c0.294-0.316,0.545-0.671,0.769-1.041
	c0.224-0.369,0.419-0.756,0.559-1.165c0.837,0,1.675,0,2.512,0c0.899-0.898,1.802-1.799,2.701-2.699
	c-0.007,0.006-0.013,0.012-0.02,0.019c-0.061,0.054-0.134,0.097-0.21,0.128c-0.076,0.037-0.16,0.058-0.295,0.077
	c-0.135,0.02-0.324,0.034-0.691,0.037C67.384,18.638,62.869,18.638,58.355,18.638z"/>
<path fill="#31E7FF" d="M61.666,15.127c0.167,0.002,0.333,0.005,0.501,0.007c0.166,0.001,0.334,0.001,0.501,0.001
	c0.166-0.003,0.333-0.003,0.501-0.008c0.167-0.006,0.333-0.013,0.5-0.026c0.166-0.014,0.332-0.031,0.497-0.054
	c0.165-0.025,0.327-0.057,0.488-0.109c0.162-0.056,0.321-0.129,0.422-0.254c0.1-0.125,0.144-0.302,0.159-0.469
	c0.018-0.17,0.008-0.335-0.014-0.5c-0.021-0.165-0.052-0.328-0.092-0.492c-0.037-0.162-0.084-0.324-0.135-0.482
	c-0.05-0.158-0.106-0.315-0.169-0.473c-0.062-0.153-0.13-0.307-0.205-0.455c-0.077-0.148-0.166-0.291-0.267-0.424
	c-0.102-0.134-0.217-0.254-0.342-0.364c-0.125-0.111-0.258-0.211-0.4-0.301c-0.143-0.088-0.291-0.162-0.444-0.23
	c-0.153-0.065-0.312-0.122-0.472-0.167c-0.16-0.048-0.323-0.083-0.488-0.105c-0.166-0.02-0.334-0.028-0.501-0.026
	c-0.167,0.006-0.332,0.02-0.499,0.042c-0.165,0.02-0.329,0.051-0.493,0.091c-0.16,0.04-0.322,0.088-0.474,0.156
	c-0.152,0.065-0.299,0.15-0.432,0.25c-0.134,0.1-0.256,0.213-0.374,0.333c-0.117,0.119-0.229,0.244-0.335,0.374
	s-0.203,0.263-0.292,0.405c-0.091,0.139-0.171,0.287-0.246,0.435c-0.073,0.15-0.142,0.304-0.203,0.458s-0.112,0.314-0.154,0.477
	c-0.041,0.162-0.069,0.327-0.089,0.493c-0.006,0.046-0.011,0.092-0.014,0.138c0.152,0,0.303,0.007,0.453,0.025
	c0.165,0.023,0.328,0.057,0.488,0.105c0.16,0.045,0.317,0.103,0.47,0.167c0.155,0.068,0.303,0.143,0.445,0.23
	c0.143,0.089,0.275,0.19,0.4,0.301s0.241,0.23,0.342,0.364c0.019,0.022,0.036,0.045,0.052,0.068
	c0.137,0.003,0.274,0.005,0.413,0.008C61.332,15.123,61.499,15.127,61.666,15.127z"/>
<path fill="#FFFFFF" d="M31.083,17.322c0,2.201,0,4.397,0,6.597c0.76,0,1.52,0,2.279,0c0,1.818,0,3.634,0,5.451
	c-4.075,0-8.148,0-12.223,0c0-1.816,0-3.633,0-5.451c0.719,0,1.438,0,2.156,0c0-2.199,0-4.396,0-6.597
	c-0.011-0.426-0.025-0.855-0.037-1.282c-0.014-0.427-0.026-0.853-0.05-1.282c-0.021-0.426-0.057-0.855-0.153-1.271
	c-0.1-0.415-0.263-0.82-0.508-1.17c-0.244-0.35-0.571-0.644-0.954-0.834c-0.381-0.19-0.816-0.275-1.242-0.253
	c-0.425,0.023-0.842,0.153-1.221,0.355s-0.722,0.478-0.988,0.807c-0.265,0.333-0.454,0.722-0.583,1.128
	c-0.131,0.407-0.2,0.833-0.266,1.254c-0.066,0.424-0.129,0.847-0.178,1.271c-0.051,0.423-0.092,0.85-0.127,1.276
	c0,2.201,0,4.397,0,6.597c0.628,0,1.255,0,1.883,0c0,1.818,0,3.634,0,5.451c-4.912,0-9.822,0-14.735,0c0-1.816,0-3.633,0-5.451
	c1.491,0,2.981,0,4.474,0c0-4.154,0-8.313,0-12.468c-1.492-0.014-2.982-0.03-4.474-0.044c0-1.68,0-3.36,0-5.04
	c4.227,0,8.452,0,12.679,0c0,1.333,0,2.667,0,4.001c0.337-0.357,0.689-0.697,1.036-1.042c0.349-0.347,0.694-0.697,1.062-1.022
	c0.364-0.326,0.752-0.63,1.162-0.897c0.409-0.27,0.843-0.502,1.284-0.716c0.439-0.215,0.889-0.41,1.354-0.574
	c0.462-0.166,0.94-0.298,1.427-0.344c0.486-0.047,0.98-0.008,1.465,0.074c0.485,0.079,0.963,0.202,1.421,0.375
	s0.896,0.401,1.3,0.679c0.404,0.276,0.772,0.606,1.096,0.975c0.323,0.37,0.599,0.779,0.849,1.2c0.252,0.42,0.478,0.855,0.704,1.292
	c0.497-0.476,1-0.942,1.528-1.383c0.528-0.438,1.083-0.844,1.654-1.225c0.573-0.378,1.165-0.731,1.79-1.018
	c0.623-0.289,1.278-0.512,1.954-0.643c0.673-0.131,1.365-0.171,2.05-0.114c0.684,0.054,1.361,0.205,2.004,0.452
	c0.641,0.25,1.248,0.6,1.749,1.066c0.499,0.466,0.894,1.048,1.16,1.677c0.268,0.631,0.41,1.309,0.534,1.987
	c0.122,0.679,0.227,1.355,0.3,2.038s0.114,1.371,0.137,2.055c0.022,0.688,0.025,1.375,0.033,2.061c0,2.201,0,4.397,0,6.597
	c1.302,0,2.603,0,3.905,0c0,1.818,0,3.634,0,5.451c-4.715,0-9.43,0-14.145,0c0-1.816,0-3.633,0-5.451c0.653,0,1.308,0,1.961,0
	c0-2.199,0-4.396,0-6.597c-0.016-0.429-0.023-0.858-0.021-1.288c0.004-0.429,0.018-0.858,0.004-1.288
	c-0.012-0.432-0.05-0.864-0.171-1.273c-0.123-0.41-0.329-0.799-0.605-1.126c-0.277-0.333-0.624-0.603-1.013-0.79
	c-0.387-0.185-0.814-0.285-1.243-0.273c-0.427,0.006-0.855,0.123-1.235,0.322c-0.381,0.199-0.716,0.48-0.992,0.81
	c-0.276,0.328-0.496,0.702-0.659,1.1c-0.161,0.398-0.265,0.819-0.34,1.242c-0.074,0.424-0.12,0.85-0.153,1.279
	C31.126,16.463,31.106,16.893,31.083,17.322z"/>
<path fill="#31E7FF" d="M4.137,6.366c0,1.68,0,3.36,0,5.04c1.491,0.015,2.981,0.03,4.474,0.044c0,4.154,0,8.313,0,12.468
	c-1.379,0-2.758,0-4.137,0c0-2.776,0-5.555,0-8.332C2.982,15.572,1.491,15.56,0,15.545c0-1.68,0-3.361,0-5.043
	C1.38,9.124,2.757,7.745,4.137,6.366z"/>
<path fill="#31E7FF" d="M31.206,15.528c0.028-0.259,0.063-0.516,0.106-0.771c0.075-0.423,0.179-0.844,0.34-1.242
	c0.163-0.398,0.383-0.772,0.659-1.1c0.276-0.33,0.611-0.611,0.992-0.81c0.38-0.199,0.809-0.315,1.235-0.322
	c0.429-0.011,0.856,0.088,1.243,0.273c0.389,0.188,0.735,0.458,1.013,0.79c0.276,0.327,0.482,0.716,0.605,1.126
	c0.121,0.409,0.159,0.841,0.171,1.273c0.014,0.43,0,0.859-0.004,1.288c-0.002,0.429,0.006,0.859,0.021,1.288
	c0,2.201,0,4.397,0,6.597c-0.653,0-1.308,0-1.961,0c0,1.818,0,3.634,0,5.451c4.715,0,9.43,0,14.145,0
	c-1.379,1.377-2.758,2.757-4.138,4.136c-4.714,0-9.43,0-14.144,0c-0.756,0-1.512,0-2.267,0c-4.075,0-8.148,0-12.223,0
	c-0.756,0-1.512,0-2.267,0c-4.912,0-9.824,0-14.735,0c0-1.817,0-3.633,0-5.45c1.38-1.378,2.757-2.757,4.137-4.137
	c0,1.818,0,3.634,0,5.451c4.289,0,8.577,0,12.865,0c0.625,0,1.247,0,1.87,0c0-0.438,0-0.875,0-1.313c0.096,0,0.191,0,0.287,0
	c0-2.2,0-4.397,0-6.595c-0.012-0.429-0.025-0.856-0.039-1.282c-0.013-0.429-0.025-0.855-0.048-1.282
	c-0.022-0.427-0.056-0.856-0.155-1.271c-0.098-0.418-0.26-0.821-0.506-1.171c-0.244-0.35-0.572-0.643-0.955-0.836
	c-0.088-0.044-0.178-0.082-0.271-0.114c0.035-0.243,0.07-0.486,0.109-0.73c0.065-0.421,0.135-0.847,0.266-1.254
	c0.129-0.406,0.318-0.796,0.583-1.128c0.267-0.33,0.609-0.605,0.988-0.807s0.796-0.333,1.221-0.355
	c0.426-0.022,0.861,0.063,1.242,0.253c0.383,0.191,0.71,0.485,0.954,0.834c0.245,0.35,0.408,0.755,0.508,1.17
	c0.097,0.415,0.132,0.844,0.153,1.271c0.023,0.429,0.036,0.855,0.05,1.282c0.012,0.426,0.026,0.856,0.037,1.282
	c0,2.201,0,4.397,0,6.597c-0.719,0-1.438,0-2.156,0c0,1.818,0,3.634,0,5.451c3.45,0,6.9,0,10.352,0c0.623,0,1.246,0,1.871,0
	c0-0.438,0-0.875,0-1.313c0.029,0,0.06,0,0.089,0c0-2.2,0-4.397,0-6.595c-0.017-0.432-0.022-0.861-0.02-1.291
	c0.003-0.43,0.016-0.858,0.003-1.288c-0.012-0.43-0.049-0.861-0.172-1.272c-0.122-0.411-0.329-0.797-0.605-1.127
	c-0.277-0.333-0.624-0.603-1.012-0.788C31.503,15.627,31.356,15.571,31.206,15.528z"/>
<path fill="#FFFFFF" d="M237.55,35.348c-1.254-0.158-2.404-0.469-3.66-0.158c-0.574,0-1.15,0.576-1.412,1.097
	c-0.313,0.891,0.104,1.466,0.838,1.885c1.984,1.099,4.234,1.255,6.536,0.837c0,0.261,0.156,0.261,0.262,0.418
	c0.086-0.087,0.173-0.174,0.262-0.262c0-0.156,0-0.262-0.054-0.262c1.152-0.208,2.668-1.099,2.354-2.145
	C241.943,34.878,239.433,35.45,237.55,35.348z"/>
</svg>
